{
	"asset":{
		"generator":"Khronos glTF Blender I/O v4.0.44",
		"version":"2.0"
	},
	"scene":0,
	"scenes":[
		{
			"name":"Scene",
			"nodes":[
				0
			]
		}
	],
	"nodes":[
		{
			"mesh":0,
			"name":"Cube.002",
			"translation":[
				0.4596371054649353,
				0.40319791436195374,
				-10.151524543762207
			]
		}
	],
	"materials":[
		{
			"doubleSided":true,
			"name":"Metal Plates.001",
			"normalTexture":{
				"index":0,
				"texCoord":1
			},
			"pbrMetallicRoughness":{
				"baseColorTexture":{
					"index":1,
					"texCoord":1
				},
				"metallicRoughnessTexture":{
					"index":2,
					"texCoord":1
				}
			}
		}
	],
	"meshes":[
		{
			"name":"Cube.003",
			"primitives":[
				{
					"attributes":{
						"COLOR_0":0,
						"POSITION":1,
						"NORMAL":2,
						"TEXCOORD_0":3,
						"TEXCOORD_1":4
					},
					"indices":5,
					"material":0
				}
			]
		}
	],
	"textures":[
		{
			"sampler":0,
			"source":0
		},
		{
			"sampler":0,
			"source":1
		},
		{
			"sampler":0,
			"source":2
		}
	],
	"images":[
		{
			"mimeType":"image/jpeg",
			"name":"MetalPlates008_2K_Normal",
			"uri":"MetalPlates008_2K_Normal.jpg"
		},
		{
			"mimeType":"image/jpeg",
			"name":"MetalPlates008_2K_Color",
			"uri":"MetalPlates008_2K_Color.jpg"
		},
		{
			"mimeType":"image/png",
			"name":"MetalPlates008_2K_Metalness.jpg-MetalPlates008_2K_Roughness.jpg",
			"uri":"MetalPlates008_2K_Metalness_jpg-MetalPlates008_2K_Roughness_jpg.png"
		}
	],
	"accessors":[
		{
			"bufferView":0,
			"componentType":5123,
			"count":28418,
			"normalized":true,
			"type":"VEC4"
		},
		{
			"bufferView":1,
			"componentType":5126,
			"count":28418,
			"max":[
				1.3798898458480835,
				1.3920854330062866,
				1.406649112701416
			],
			"min":[
				-1.3256860971450806,
				-1.238775610923767,
				-1.4536153078079224
			],
			"type":"VEC3"
		},
		{
			"bufferView":2,
			"componentType":5126,
			"count":28418,
			"type":"VEC3"
		},
		{
			"bufferView":3,
			"componentType":5126,
			"count":28418,
			"type":"VEC2"
		},
		{
			"bufferView":4,
			"componentType":5126,
			"count":28418,
			"type":"VEC2"
		},
		{
			"bufferView":5,
			"componentType":5123,
			"count":59280,
			"type":"SCALAR"
		}
	],
	"bufferViews":[
		{
			"buffer":0,
			"byteLength":227344,
			"byteOffset":0,
			"target":34962
		},
		{
			"buffer":0,
			"byteLength":341016,
			"byteOffset":227344,
			"target":34962
		},
		{
			"buffer":0,
			"byteLength":341016,
			"byteOffset":568360,
			"target":34962
		},
		{
			"buffer":0,
			"byteLength":227344,
			"byteOffset":909376,
			"target":34962
		},
		{
			"buffer":0,
			"byteLength":227344,
			"byteOffset":1136720,
			"target":34962
		},
		{
			"buffer":0,
			"byteLength":118560,
			"byteOffset":1364064,
			"target":34963
		}
	],
	"samplers":[
		{
			"magFilter":9729,
			"minFilter":9987
		}
	],
	"buffers":[
		{
			"byteLength":1482624,
			"uri":"surrealist-cube.bin"
		}
	]
}
