{
	"asset":{
		"generator":"Khronos glTF Blender I/O v4.0.44",
		"version":"2.0"
	},
	"extensionsUsed":[
		"KHR_materials_emissive_strength"
	],
	"scene":2,
	"scenes":[
		{
			"name":"SB_Export_Temp"
		},
		{
			"name":"SB_Export_Temp.001"
		},
		{
			"name":"Scene",
			"nodes":[
				0
			]
		}
	],
	"nodes":[
		{
			"mesh":0,
			"name":"Torus",
			"rotation":[
				0,
				0,
				0.7071068286895752,
				0.7071068286895752
			],
			"scale":[
				0.5,
				0.5,
				0.5
			],
			"translation":[
				-4.2483062744140625,
				21.39322853088379,
				0
			]
		}
	],
	"materials":[
		{
			"doubleSided":true,
			"name":"Metal Plates.001",
			"normalTexture":{
				"index":0,
				"texCoord":1
			},
			"pbrMetallicRoughness":{
				"baseColorTexture":{
					"index":1,
					"texCoord":1
				},
				"metallicRoughnessTexture":{
					"index":2,
					"texCoord":1
				}
			}
		},
		{
			"doubleSided":true,
			"emissiveFactor":[
				1,
				0,
				0.004337416496127844
			],
			"extensions":{
				"KHR_materials_emissive_strength":{
					"emissiveStrength":50
				}
			},
			"name":"Emissive white",
			"pbrMetallicRoughness":{
				"baseColorFactor":[
					0.800000011920929,
					0.800000011920929,
					0.800000011920929,
					1
				],
				"metallicFactor":0,
				"roughnessFactor":0.5
			}
		}
	],
	"meshes":[
		{
			"name":"Torus",
			"primitives":[
				{
					"attributes":{
						"POSITION":0,
						"NORMAL":1,
						"TEXCOORD_0":2,
						"TEXCOORD_1":3
					},
					"indices":4,
					"material":0
				},
				{
					"attributes":{
						"POSITION":5,
						"NORMAL":6,
						"TEXCOORD_0":7,
						"TEXCOORD_1":8
					},
					"indices":9,
					"material":1
				}
			]
		}
	],
	"textures":[
		{
			"sampler":0,
			"source":0
		},
		{
			"sampler":0,
			"source":1
		},
		{
			"sampler":0,
			"source":2
		}
	],
	"images":[
		{
			"mimeType":"image/jpeg",
			"name":"MetalPlates005_2K_Normal",
			"uri":"MetalPlates005_2K_Normal.jpg"
		},
		{
			"mimeType":"image/jpeg",
			"name":"MetalPlates005_2K_Color",
			"uri":"MetalPlates005_2K_Color.jpg"
		},
		{
			"mimeType":"image/png",
			"name":"MetalPlates005_2K_Metalness-MetalPlates005_2K_Roughness",
			"uri":"MetalPlates005_2K_Metalness-MetalPlates005_2K_Roughness.png"
		}
	],
	"accessors":[
		{
			"bufferView":0,
			"componentType":5126,
			"count":18744,
			"max":[
				21.139434814453125,
				1.6708749532699585,
				18.357969284057617
			],
			"min":[
				-10.657495498657227,
				-1.7061238288879395,
				-18.357969284057617
			],
			"type":"VEC3"
		},
		{
			"bufferView":1,
			"componentType":5126,
			"count":18744,
			"type":"VEC3"
		},
		{
			"bufferView":2,
			"componentType":5126,
			"count":18744,
			"type":"VEC2"
		},
		{
			"bufferView":3,
			"componentType":5126,
			"count":18744,
			"type":"VEC2"
		},
		{
			"bufferView":4,
			"componentType":5123,
			"count":33156,
			"type":"SCALAR"
		},
		{
			"bufferView":5,
			"componentType":5126,
			"count":108,
			"max":[
				19.782136917114258,
				1.658390998840332,
				17.131834030151367
			],
			"min":[
				-9.89106559753418,
				0.7720073461532593,
				-17.131834030151367
			],
			"type":"VEC3"
		},
		{
			"bufferView":6,
			"componentType":5126,
			"count":108,
			"type":"VEC3"
		},
		{
			"bufferView":7,
			"componentType":5126,
			"count":108,
			"type":"VEC2"
		},
		{
			"bufferView":8,
			"componentType":5126,
			"count":108,
			"type":"VEC2"
		},
		{
			"bufferView":9,
			"componentType":5123,
			"count":270,
			"type":"SCALAR"
		}
	],
	"bufferViews":[
		{
			"buffer":0,
			"byteLength":224928,
			"byteOffset":0,
			"target":34962
		},
		{
			"buffer":0,
			"byteLength":224928,
			"byteOffset":224928,
			"target":34962
		},
		{
			"buffer":0,
			"byteLength":149952,
			"byteOffset":449856,
			"target":34962
		},
		{
			"buffer":0,
			"byteLength":149952,
			"byteOffset":599808,
			"target":34962
		},
		{
			"buffer":0,
			"byteLength":66312,
			"byteOffset":749760,
			"target":34963
		},
		{
			"buffer":0,
			"byteLength":1296,
			"byteOffset":816072,
			"target":34962
		},
		{
			"buffer":0,
			"byteLength":1296,
			"byteOffset":817368,
			"target":34962
		},
		{
			"buffer":0,
			"byteLength":864,
			"byteOffset":818664,
			"target":34962
		},
		{
			"buffer":0,
			"byteLength":864,
			"byteOffset":819528,
			"target":34962
		},
		{
			"buffer":0,
			"byteLength":540,
			"byteOffset":820392,
			"target":34963
		}
	],
	"samplers":[
		{
			"magFilter":9729,
			"minFilter":9987
		}
	],
	"buffers":[
		{
			"byteLength":820932,
			"uri":"surface-triangle.bin"
		}
	]
}
