{
	"asset":{
		"generator":"Khronos glTF Blender I/O v4.0.44",
		"version":"2.0"
	},
	"scene":3,
	"scenes":[
		{
			"name":"SB_Export_Temp"
		},
		{
			"name":"SB_Export_Temp.001"
		},
		{
			"name":"SB_Export_Temp.002"
		},
		{
			"name":"Scene",
			"nodes":[
				0
			]
		}
	],
	"nodes":[
		{
			"mesh":0,
			"name":"Floor",
			"scale":[
				50,
				50,
				50
			],
			"translation":[
				0,
				15.599495887756348,
				0
			]
		}
	],
	"materials":[
		{
			"doubleSided":true,
			"name":"SBW_Metal Plates.001",
			"normalTexture":{
				"index":0
			},
			"pbrMetallicRoughness":{
				"baseColorTexture":{
					"index":1
				},
				"metallicRoughnessTexture":{
					"index":2
				}
			}
		}
	],
	"meshes":[
		{
			"name":"Plane.002",
			"primitives":[
				{
					"attributes":{
						"POSITION":0,
						"NORMAL":1,
						"TEXCOORD_0":2
					},
					"indices":3,
					"material":0
				}
			]
		}
	],
	"textures":[
		{
			"sampler":0,
			"source":0
		},
		{
			"sampler":0,
			"source":1
		},
		{
			"sampler":0,
			"source":2
		}
	],
	"images":[
		{
			"mimeType":"image/jpeg",
			"name":"MetalPlates005_2K_Normal",
			"uri":"MetalPlates005_2K_Normal.jpg"
		},
		{
			"mimeType":"image/jpeg",
			"name":"MetalPlates005_2K_Color",
			"uri":"MetalPlates005_2K_Color.jpg"
		},
		{
			"mimeType":"image/png",
			"name":"MetalPlates005_2K_Metalness-MetalPlates005_2K_Roughness",
			"uri":"MetalPlates005_2K_Metalness-MetalPlates005_2K_Roughness.png"
		}
	],
	"accessors":[
		{
			"bufferView":0,
			"componentType":5126,
			"count":4215,
			"max":[
				1,
				0.06830060482025146,
				1
			],
			"min":[
				-1,
				0,
				-1
			],
			"type":"VEC3"
		},
		{
			"bufferView":1,
			"componentType":5126,
			"count":4215,
			"type":"VEC3"
		},
		{
			"bufferView":2,
			"componentType":5126,
			"count":4215,
			"type":"VEC2"
		},
		{
			"bufferView":3,
			"componentType":5123,
			"count":17328,
			"type":"SCALAR"
		}
	],
	"bufferViews":[
		{
			"buffer":0,
			"byteLength":50580,
			"byteOffset":0,
			"target":34962
		},
		{
			"buffer":0,
			"byteLength":50580,
			"byteOffset":50580,
			"target":34962
		},
		{
			"buffer":0,
			"byteLength":33720,
			"byteOffset":101160,
			"target":34962
		},
		{
			"buffer":0,
			"byteLength":34656,
			"byteOffset":134880,
			"target":34963
		}
	],
	"samplers":[
		{
			"magFilter":9729,
			"minFilter":9987
		}
	],
	"buffers":[
		{
			"byteLength":169536,
			"uri":"surface-floor.bin"
		}
	]
}
