<svg
    id="wave"
    style="transform: rotate(0deg); transition: 0.3s"
    viewBox="0 0 1440 490"
    version="1.1"
    xmlns="http://www.w3.org/2000/svg"
>
    <defs>
        <linearGradient id="sw-gradient-0" x1="0" x2="0" y1="1" y2="0">
            <stop stop-color="rgba(62, 106.232, 243, 1)" offset="0%"></stop>
            <stop stop-color="rgba(11, 255, 241.148, 1)" offset="100%"></stop>
        </linearGradient>
    </defs>
    <path
        style="transform: translate(0, 0px); opacity: 1"
        fill="url(#sw-gradient-0)"
        d="M0,196L80,196C160,196,320,196,480,228.7C640,261,800,327,960,326.7C1120,327,1280,261,1440,269.5C1600,278,1760,359,1920,392C2080,425,2240,408,2400,383.8C2560,359,2720,327,2880,310.3C3040,294,3200,294,3360,310.3C3520,327,3680,359,3840,359.3C4000,359,4160,327,4320,269.5C4480,212,4640,131,4800,81.7C4960,33,5120,16,5280,16.3C5440,16,5600,33,5760,98C5920,163,6080,278,6240,318.5C6400,359,6560,327,6720,310.3C6880,294,7040,294,7200,261.3C7360,229,7520,163,7680,155.2C7840,147,8000,196,8160,228.7C8320,261,8480,278,8640,245C8800,212,8960,131,9120,130.7C9280,131,9440,212,9600,236.8C9760,261,9920,229,10080,245C10240,261,10400,327,10560,326.7C10720,327,10880,261,11040,253.2C11200,245,11360,294,11440,318.5L11520,343L11520,490L11440,490C11360,490,11200,490,11040,490C10880,490,10720,490,10560,490C10400,490,10240,490,10080,490C9920,490,9760,490,9600,490C9440,490,9280,490,9120,490C8960,490,8800,490,8640,490C8480,490,8320,490,8160,490C8000,490,7840,490,7680,490C7520,490,7360,490,7200,490C7040,490,6880,490,6720,490C6560,490,6400,490,6240,490C6080,490,5920,490,5760,490C5600,490,5440,490,5280,490C5120,490,4960,490,4800,490C4640,490,4480,490,4320,490C4160,490,4000,490,3840,490C3680,490,3520,490,3360,490C3200,490,3040,490,2880,490C2720,490,2560,490,2400,490C2240,490,2080,490,1920,490C1760,490,1600,490,1440,490C1280,490,1120,490,960,490C800,490,640,490,480,490C320,490,160,490,80,490L0,490Z"
    ></path>
    <defs>
        <linearGradient id="sw-gradient-1" x1="0" x2="0" y1="1" y2="0">
            <stop stop-color="rgba(62, 243, 190.113, 1)" offset="0%"></stop>
            <stop stop-color="rgba(11, 111.215, 255, 1)" offset="100%"></stop>
        </linearGradient>
    </defs>
    <path
        style="transform: translate(0, 50px); opacity: 0.9"
        fill="url(#sw-gradient-1)"
        d="M0,147L80,163.3C160,180,320,212,480,204.2C640,196,800,147,960,171.5C1120,196,1280,294,1440,310.3C1600,327,1760,261,1920,220.5C2080,180,2240,163,2400,163.3C2560,163,2720,180,2880,155.2C3040,131,3200,65,3360,106.2C3520,147,3680,294,3840,334.8C4000,376,4160,310,4320,253.2C4480,196,4640,147,4800,179.7C4960,212,5120,327,5280,383.8C5440,441,5600,441,5760,441C5920,441,6080,441,6240,392C6400,343,6560,245,6720,245C6880,245,7040,343,7200,334.8C7360,327,7520,212,7680,179.7C7840,147,8000,196,8160,204.2C8320,212,8480,180,8640,155.2C8800,131,8960,114,9120,155.2C9280,196,9440,294,9600,326.7C9760,359,9920,327,10080,294C10240,261,10400,229,10560,245C10720,261,10880,327,11040,318.5C11200,310,11360,229,11440,187.8L11520,147L11520,490L11440,490C11360,490,11200,490,11040,490C10880,490,10720,490,10560,490C10400,490,10240,490,10080,490C9920,490,9760,490,9600,490C9440,490,9280,490,9120,490C8960,490,8800,490,8640,490C8480,490,8320,490,8160,490C8000,490,7840,490,7680,490C7520,490,7360,490,7200,490C7040,490,6880,490,6720,490C6560,490,6400,490,6240,490C6080,490,5920,490,5760,490C5600,490,5440,490,5280,490C5120,490,4960,490,4800,490C4640,490,4480,490,4320,490C4160,490,4000,490,3840,490C3680,490,3520,490,3360,490C3200,490,3040,490,2880,490C2720,490,2560,490,2400,490C2240,490,2080,490,1920,490C1760,490,1600,490,1440,490C1280,490,1120,490,960,490C800,490,640,490,480,490C320,490,160,490,80,490L0,490Z"
    ></path>
    <defs>
        <linearGradient id="sw-gradient-2" x1="0" x2="0" y1="1" y2="0">
            <stop stop-color="rgba(62, 243, 135.358, 1)" offset="0%"></stop>
            <stop stop-color="rgba(11, 69.304, 255, 1)" offset="100%"></stop>
        </linearGradient>
    </defs>
    <path
        style="transform: translate(0, 100px); opacity: 0.8"
        fill="url(#sw-gradient-2)"
        d="M0,441L80,432.8C160,425,320,408,480,359.3C640,310,800,229,960,228.7C1120,229,1280,310,1440,326.7C1600,343,1760,294,1920,236.8C2080,180,2240,114,2400,98C2560,82,2720,114,2880,138.8C3040,163,3200,180,3360,155.2C3520,131,3680,65,3840,65.3C4000,65,4160,131,4320,196C4480,261,4640,327,4800,359.3C4960,392,5120,392,5280,351.2C5440,310,5600,229,5760,179.7C5920,131,6080,114,6240,122.5C6400,131,6560,163,6720,187.8C6880,212,7040,229,7200,245C7360,261,7520,278,7680,245C7840,212,8000,131,8160,98C8320,65,8480,82,8640,73.5C8800,65,8960,33,9120,81.7C9280,131,9440,261,9600,326.7C9760,392,9920,392,10080,392C10240,392,10400,392,10560,375.7C10720,359,10880,327,11040,310.3C11200,294,11360,294,11440,294L11520,294L11520,490L11440,490C11360,490,11200,490,11040,490C10880,490,10720,490,10560,490C10400,490,10240,490,10080,490C9920,490,9760,490,9600,490C9440,490,9280,490,9120,490C8960,490,8800,490,8640,490C8480,490,8320,490,8160,490C8000,490,7840,490,7680,490C7520,490,7360,490,7200,490C7040,490,6880,490,6720,490C6560,490,6400,490,6240,490C6080,490,5920,490,5760,490C5600,490,5440,490,5280,490C5120,490,4960,490,4800,490C4640,490,4480,490,4320,490C4160,490,4000,490,3840,490C3680,490,3520,490,3360,490C3200,490,3040,490,2880,490C2720,490,2560,490,2400,490C2240,490,2080,490,1920,490C1760,490,1600,490,1440,490C1280,490,1120,490,960,490C800,490,640,490,480,490C320,490,160,490,80,490L0,490Z"
    ></path>
</svg>