<svg width="1460" height="876" viewBox="0 0 1460 876" fill="none" xmlns="http://www.w3.org/2000/svg">
<g clip-path="url(#clip0_2_3)">
<path d="M1460 0H0V876H1460V0Z" fill="black"/>
<mask id="mask0_2_3" style="mask-type:luminance" maskUnits="userSpaceOnUse" x="0" y="0" width="1460" height="876">
<path d="M1460 0H0V876H1460V0Z" fill="white"/>
</mask>
<g mask="url(#mask0_2_3)">
<path d="M1073.14 554.105V659.488H1058.08V542.165L956.677 440.759V622.112L1031.78 697.211V738.395L1067.42 774.042H1293.07L1073.14 554.105Z" fill="white"/>
<path d="M662.846 440.759H548.983V475.37L624.95 551.337H664.577V587.501L851.119 774.042H996.129L662.846 440.759Z" fill="white"/>
<path d="M359.846 513.786V591.136H342.715V553.758H327.142L211.72 440.759V553.758L358.202 700.239H399.474L473.277 774.042H620.106L359.846 513.786Z" fill="white"/>
<path d="M810.627 442.144H737.256L850.774 554.622H923.105L810.627 442.144ZM744.349 445.064H809.415L916.057 551.702H851.974L744.349 445.064Z" fill="#00FFFF"/>
<path d="M400.858 475.89V440.762H323.507L473.536 590.792H548.983V626.784H512.989L660.25 774.045H771.362L474.921 475.89H400.858ZM661.459 771.122L520.037 629.701H551.9V587.869H474.742L330.553 443.679H397.935V478.807H473.7L764.336 771.122H661.459Z" fill="#00FFFF"/>
<path d="M1460 181.04H1427.88V488.612H1460V181.04Z" fill="white"/>
<path d="M86.3824 141.378H62.05V143.81H86.3824V141.378Z" fill="white"/>
<path d="M86.3824 148.678H62.05V151.11H86.3824V148.678Z" fill="white"/>
<path d="M86.3824 155.978H62.05V158.41H86.3824V155.978Z" fill="white"/>
<path d="M86.3824 163.278H62.05V165.71H86.3824V163.278Z" fill="white"/>
<path d="M86.3824 170.578H62.05V173.01H86.3824V170.578Z" fill="white"/>
<path d="M86.3824 177.878H62.05V180.31H86.3824V177.878Z" fill="white"/>
<path d="M86.3824 185.178H62.05V187.61H86.3824V185.178Z" fill="white"/>
<path d="M86.3824 192.478H62.05V194.91H86.3824V192.478Z" fill="white"/>
<path d="M86.3824 199.778H62.05V202.21H86.3824V199.778Z" fill="white"/>
<path d="M86.3824 207.078H62.05V209.51H86.3824V207.078Z" fill="white"/>
<path d="M86.3824 214.378H62.05V216.81H86.3824V214.378Z" fill="white"/>
<path d="M86.3824 221.678H62.05V224.11H86.3824V221.678Z" fill="white"/>
<path d="M86.3824 228.978H62.05V231.41H86.3824V228.978Z" fill="white"/>
<path d="M86.3824 236.278H62.05V238.71H86.3824V236.278Z" fill="white"/>
<path d="M86.3824 243.578H62.05V246.01H86.3824V243.578Z" fill="white"/>
<path d="M1375.32 711.876L983.497 320.052V192.72H1172.12C1172.81 196.569 1176.16 199.494 1180.2 199.494C1184.75 199.494 1188.44 195.806 1188.44 191.26C1188.44 186.714 1184.75 183.026 1180.2 183.026C1176.16 183.026 1172.81 185.951 1172.12 189.8H980.577V321.264L1372.4 713.084V813.22H78.3699C77.6779 809.371 74.3316 806.446 70.2844 806.446C65.7351 806.446 62.05 810.134 62.05 814.68C62.05 819.226 65.738 822.914 70.2844 822.914C74.3286 822.914 77.6779 819.989 78.3699 816.14H1375.32V711.876Z" fill="#00FFFF"/>
<path d="M999.049 201.48H993.53V234.695H999.049V201.48Z" fill="#00FFFF"/>
<path d="M1022.73 201.48H1017.21V234.695H1022.73V201.48Z" fill="#00FFFF"/>
<path d="M1046.41 201.48H1040.89V234.695H1046.41V201.48Z" fill="#00FFFF"/>
<path d="M1070.09 201.48H1064.57V234.695H1070.09V201.48Z" fill="#00FFFF"/>
<path d="M1093.77 201.48H1088.25V234.695H1093.77V201.48Z" fill="#00FFFF"/>
<path d="M1117.45 201.48H1111.93V234.695H1117.45V201.48Z" fill="#00FFFF"/>
<path d="M1141.13 201.48H1135.61V234.695H1141.13V201.48Z" fill="#00FFFF"/>
<path d="M1164.81 201.48H1159.3V234.695H1164.81V201.48Z" fill="#00FFFF"/>
<path d="M1080.63 168.907H1048.51V97.2856L1111 34.7976L1133.71 57.5094L1080.63 110.592V168.907Z" stroke="white" stroke-width="0.5" stroke-miterlimit="10"/>
<path d="M1235.88 842.621L1248.87 850.12V835.12L1235.88 842.621Z" fill="#00FFFF"/>
<path d="M1267.49 842.621L1280.48 850.12V835.12L1267.49 842.621Z" fill="#00FFFF"/>
<path d="M1299.1 842.621L1312.09 850.12V835.12L1299.1 842.621Z" fill="#00FFFF"/>
<path d="M1330.71 842.621L1343.71 850.12V835.12L1330.71 842.621Z" fill="#00FFFF"/>
<path d="M1362.33 842.621L1375.32 850.12V835.12L1362.33 842.621Z" fill="#00FFFF"/>
<path d="M325.092 220.46H308.06V237.492H325.092V220.46Z" fill="white"/>
<path d="M63 142H62V530H63V142Z" fill="white"/>
<path d="M752.864 89.3024H735.831V106.335H752.864V89.3024Z" fill="#00FFFF"/>
<path d="M861.155 200.992H844.122V218.025H861.155V200.992Z" fill="#00FFFF"/>
<path d="M1257.38 89.3024H1240.35V106.335H1257.38V89.3024Z" fill="#00FFFF"/>
<path d="M1337.21 445.788H1320.18V462.82H1337.21V445.788Z" fill="#00FFFF"/>
<path d="M103.415 664.542H86.3824V681.575H103.415V664.542Z" fill="#00FFFF"/>
<path d="M744.349 326.31H727.317V343.342H744.349V326.31Z" fill="white"/>
<path d="M1406.95 625.368H1389.92V642.4H1406.95V625.368Z" fill="#00FFFF"/>
<path d="M115.337 378.382H98.3047V395.415H115.337V378.382Z" fill="#00FFFF"/>
</g>
</g>
<defs>
<clipPath id="clip0_2_3">
<rect width="1460" height="876" fill="white"/>
</clipPath>
</defs>
</svg>
