{
	"asset":{
		"generator":"Khronos glTF Blender I/O v4.0.44",
		"version":"2.0"
	},
	"extensionsUsed":[
		"KHR_materials_specular",
		"KHR_materials_ior",
		"KHR_materials_emissive_strength"
	],
	"scene":0,
	"scenes":[
		{
			"name":"Scene",
			"nodes":[
				0,
				1,
				2
			]
		}
	],
	"nodes":[
		{
			"mesh":0,
			"name":"GeoNode Plane FULL",
			"scale":[
				10,
				10,
				10
			]
		},
		{
			"mesh":1,
			"name":"Emission plane",
			"scale":[
				71.34259033203125,
				37.54873275756836,
				41.30360794067383
			],
			"translation":[
				0,
				8.884817123413086,
				0
			]
		},
		{
			"mesh":2,
			"name":"GeoNode Plane EMPTY",
			"translation":[
				0,
				3,
				0
			]
		}
	],
	"materials":[
		{
			"doubleSided":true,
			"extensions":{
				"KHR_materials_specular":{
					"specularFactor":0.4000000059604645
				},
				"KHR_materials_ior":{
					"ior":1.4500000476837158
				}
			},
			"name":"Metal Panels 44",
			"normalTexture":{
				"index":0
			},
			"pbrMetallicRoughness":{
				"baseColorTexture":{
					"index":1
				},
				"metallicRoughnessTexture":{
					"index":2
				}
			}
		},
		{
			"doubleSided":true,
			"emissiveFactor":[
				1,
				1,
				1
			],
			"extensions":{
				"KHR_materials_emissive_strength":{
					"emissiveStrength":10
				}
			},
			"name":"Material.003",
			"pbrMetallicRoughness":{
				"baseColorFactor":[
					0.800000011920929,
					0.800000011920929,
					0.800000011920929,
					1
				],
				"metallicFactor":0,
				"roughnessFactor":0.5
			}
		},
		{
			"doubleSided":true,
			"extensions":{
				"KHR_materials_specular":{
					"specularFactor":0.4000000059604645
				},
				"KHR_materials_ior":{
					"ior":1.4500000476837158
				}
			},
			"name":"Metal Panels 44.004",
			"normalTexture":{
				"index":3
			},
			"pbrMetallicRoughness":{
				"baseColorTexture":{
					"index":4
				},
				"metallicRoughnessTexture":{
					"index":5
				}
			}
		}
	],
	"meshes":[
		{
			"name":"Plane",
			"primitives":[
				{
					"attributes":{
						"POSITION":0,
						"NORMAL":1,
						"TEXCOORD_0":2,
						"TEXCOORD_1":3
					},
					"indices":4,
					"material":0
				}
			]
		},
		{
			"name":"Plane.001",
			"primitives":[
				{
					"attributes":{
						"POSITION":5,
						"NORMAL":6,
						"TEXCOORD_0":7
					},
					"indices":8,
					"material":1
				}
			]
		},
		{
			"name":"Plane.003",
			"primitives":[
				{
					"attributes":{
						"POSITION":9,
						"NORMAL":10,
						"TEXCOORD_0":11,
						"TEXCOORD_1":12
					},
					"indices":13,
					"material":2
				}
			]
		}
	],
	"textures":[
		{
			"sampler":0,
			"source":0
		},
		{
			"sampler":0,
			"source":1
		},
		{
			"sampler":0,
			"source":2
		},
		{
			"sampler":0,
			"source":0
		},
		{
			"sampler":0,
			"source":3
		},
		{
			"sampler":0,
			"source":4
		}
	],
	"images":[
		{
			"mimeType":"image/jpeg",
			"name":"metal-44_normal",
			"uri":"metal-44_normal.jpg"
		},
		{
			"mimeType":"image/jpeg",
			"name":"metal-44_diffuse",
			"uri":"metal-44_diffuse.jpg"
		},
		{
			"mimeType":"image/png",
			"name":"metal-44_metal-metal-44_roughness",
			"uri":"metal-44_metal-metal-44_roughness.png"
		},
		{
			"mimeType":"image/jpeg",
			"name":"metal-44-dark_diffuse",
			"uri":"metal-44-dark_diffuse.jpg"
		},
		{
			"mimeType":"image/png",
			"name":"metal-44_metal.jpg-metal-44_roughness.jpg",
			"uri":"metal-44_metal_jpg-metal-44_roughness_jpg.png"
		}
	],
	"accessors":[
		{
			"bufferView":0,
			"componentType":5126,
			"count":92928,
			"max":[
				8.275310516357422,
				0.9999597072601318,
				4.719263076782227
			],
			"min":[
				-8.269083023071289,
				-0.9999597072601318,
				-4.746315002441406
			],
			"type":"VEC3"
		},
		{
			"bufferView":1,
			"componentType":5126,
			"count":92928,
			"type":"VEC3"
		},
		{
			"bufferView":2,
			"componentType":5126,
			"count":92928,
			"type":"VEC2"
		},
		{
			"bufferView":3,
			"componentType":5126,
			"count":92928,
			"type":"VEC2"
		},
		{
			"bufferView":4,
			"componentType":5125,
			"count":139392,
			"type":"SCALAR"
		},
		{
			"bufferView":5,
			"componentType":5126,
			"count":4,
			"max":[
				1.100000023841858,
				0,
				1.100000023841858
			],
			"min":[
				-1.100000023841858,
				0,
				-1.100000023841858
			],
			"type":"VEC3"
		},
		{
			"bufferView":6,
			"componentType":5126,
			"count":4,
			"type":"VEC3"
		},
		{
			"bufferView":7,
			"componentType":5126,
			"count":4,
			"type":"VEC2"
		},
		{
			"bufferView":8,
			"componentType":5123,
			"count":6,
			"type":"SCALAR"
		},
		{
			"bufferView":9,
			"componentType":5126,
			"count":7640,
			"max":[
				85.50650024414062,
				9.990559577941895,
				49.70412826538086
			],
			"min":[
				-84.39715576171875,
				-9.990559577941895,
				-49.18929672241211
			],
			"type":"VEC3"
		},
		{
			"bufferView":10,
			"componentType":5126,
			"count":7640,
			"type":"VEC3"
		},
		{
			"bufferView":11,
			"componentType":5126,
			"count":7640,
			"type":"VEC2"
		},
		{
			"bufferView":12,
			"componentType":5126,
			"count":7640,
			"type":"VEC2"
		},
		{
			"bufferView":13,
			"componentType":5123,
			"count":11460,
			"type":"SCALAR"
		}
	],
	"bufferViews":[
		{
			"buffer":0,
			"byteLength":1115136,
			"byteOffset":0,
			"target":34962
		},
		{
			"buffer":0,
			"byteLength":1115136,
			"byteOffset":1115136,
			"target":34962
		},
		{
			"buffer":0,
			"byteLength":743424,
			"byteOffset":2230272,
			"target":34962
		},
		{
			"buffer":0,
			"byteLength":743424,
			"byteOffset":2973696,
			"target":34962
		},
		{
			"buffer":0,
			"byteLength":557568,
			"byteOffset":3717120,
			"target":34963
		},
		{
			"buffer":0,
			"byteLength":48,
			"byteOffset":4274688,
			"target":34962
		},
		{
			"buffer":0,
			"byteLength":48,
			"byteOffset":4274736,
			"target":34962
		},
		{
			"buffer":0,
			"byteLength":32,
			"byteOffset":4274784,
			"target":34962
		},
		{
			"buffer":0,
			"byteLength":12,
			"byteOffset":4274816,
			"target":34963
		},
		{
			"buffer":0,
			"byteLength":91680,
			"byteOffset":4274828,
			"target":34962
		},
		{
			"buffer":0,
			"byteLength":91680,
			"byteOffset":4366508,
			"target":34962
		},
		{
			"buffer":0,
			"byteLength":61120,
			"byteOffset":4458188,
			"target":34962
		},
		{
			"buffer":0,
			"byteLength":61120,
			"byteOffset":4519308,
			"target":34962
		},
		{
			"buffer":0,
			"byteLength":22920,
			"byteOffset":4580428,
			"target":34963
		}
	],
	"samplers":[
		{
			"magFilter":9729,
			"minFilter":9987
		}
	],
	"buffers":[
		{
			"byteLength":4603348,
			"uri":"geonodes.bin"
		}
	]
}
