{
	"asset":{
		"generator":"Khronos glTF Blender I/O v4.0.44",
		"version":"2.0"
	},
	"extensionsUsed":[
		"KHR_materials_emissive_strength"
	],
	"scene":0,
	"scenes":[
		{
			"name":"Scene",
			"nodes":[
				0
			]
		}
	],
	"nodes":[
		{
			"mesh":0,
			"name":"Torus.001"
		}
	],
	"materials":[
		{
			"doubleSided":true,
			"name":"Scratched Gold",
			"pbrMetallicRoughness":{
				"roughnessFactor":0.30035433173179626
			}
		},
		{
			"doubleSided":true,
			"emissiveFactor":[
				1,
				1,
				1
			],
			"extensions":{
				"KHR_materials_emissive_strength":{
					"emissiveStrength":50
				}
			},
			"name":"Material.005",
			"pbrMetallicRoughness":{
				"baseColorFactor":[
					0.800000011920929,
					0.800000011920929,
					0.800000011920929,
					1
				],
				"metallicFactor":0,
				"roughnessFactor":0.5
			}
		}
	],
	"meshes":[
		{
			"name":"Torus.001",
			"primitives":[
				{
					"attributes":{
						"POSITION":0,
						"NORMAL":1,
						"TEXCOORD_0":2,
						"TEXCOORD_1":3
					},
					"indices":4,
					"material":0
				},
				{
					"attributes":{
						"POSITION":5,
						"NORMAL":6,
						"TEXCOORD_0":7,
						"TEXCOORD_1":8
					},
					"indices":9,
					"material":1
				}
			]
		}
	],
	"accessors":[
		{
			"bufferView":0,
			"componentType":5126,
			"count":84,
			"max":[
				2.138683795928955,
				0.22313356399536133,
				1.8683295249938965
			],
			"min":[
				-1.0973570346832275,
				-0.18452590703964233,
				-1.8683295249938965
			],
			"type":"VEC3"
		},
		{
			"bufferView":1,
			"componentType":5126,
			"count":84,
			"type":"VEC3"
		},
		{
			"bufferView":2,
			"componentType":5126,
			"count":84,
			"type":"VEC2"
		},
		{
			"bufferView":3,
			"componentType":5126,
			"count":84,
			"type":"VEC2"
		},
		{
			"bufferView":4,
			"componentType":5123,
			"count":126,
			"type":"SCALAR"
		},
		{
			"bufferView":5,
			"componentType":5126,
			"count":216,
			"max":[
				2.25,
				0.22313356399536133,
				1.9485573768615723
			],
			"min":[
				-1.1249996423721313,
				-0.21650634706020355,
				-1.9485573768615723
			],
			"type":"VEC3"
		},
		{
			"bufferView":6,
			"componentType":5126,
			"count":216,
			"type":"VEC3"
		},
		{
			"bufferView":7,
			"componentType":5126,
			"count":216,
			"type":"VEC2"
		},
		{
			"bufferView":8,
			"componentType":5126,
			"count":216,
			"type":"VEC2"
		},
		{
			"bufferView":9,
			"componentType":5123,
			"count":360,
			"type":"SCALAR"
		}
	],
	"bufferViews":[
		{
			"buffer":0,
			"byteLength":1008,
			"byteOffset":0,
			"target":34962
		},
		{
			"buffer":0,
			"byteLength":1008,
			"byteOffset":1008,
			"target":34962
		},
		{
			"buffer":0,
			"byteLength":672,
			"byteOffset":2016,
			"target":34962
		},
		{
			"buffer":0,
			"byteLength":672,
			"byteOffset":2688,
			"target":34962
		},
		{
			"buffer":0,
			"byteLength":252,
			"byteOffset":3360,
			"target":34963
		},
		{
			"buffer":0,
			"byteLength":2592,
			"byteOffset":3612,
			"target":34962
		},
		{
			"buffer":0,
			"byteLength":2592,
			"byteOffset":6204,
			"target":34962
		},
		{
			"buffer":0,
			"byteLength":1728,
			"byteOffset":8796,
			"target":34962
		},
		{
			"buffer":0,
			"byteLength":1728,
			"byteOffset":10524,
			"target":34962
		},
		{
			"buffer":0,
			"byteLength":720,
			"byteOffset":12252,
			"target":34963
		}
	],
	"buffers":[
		{
			"byteLength":12972,
			"uri":"triangle.bin"
		}
	]
}
